<svg xmlns="http://www.w3.org/2000/svg" xmlns:svg="http://www.w3.org/2000/svg" xmlns:xlink="http://www.w3.org/1999/xlink" id="svg4434" width="128" height="128" version="1.1"><defs id="defs4436"><linearGradient id="linearGradient4136" x1="24" x2="24" y1="5.591" y2="42.262" gradientTransform="matrix(2.7297298,0,0,2.7297298,-1.5135184,1.488321)" gradientUnits="userSpaceOnUse" xlink:href="#linearGradient3924"/><linearGradient id="linearGradient3924"><stop style="stop-color:#fff;stop-opacity:1" id="stop3926" offset="0"/><stop style="stop-color:#fff;stop-opacity:.23529412" id="stop3928" offset=".038"/><stop style="stop-color:#fff;stop-opacity:.15686275" id="stop3930" offset=".967"/><stop style="stop-color:#fff;stop-opacity:.39215687" id="stop3932" offset="1"/></linearGradient><linearGradient id="linearGradient3913-9" x1="30.271" x2="30.271" y1="10.029" y2="55.053" gradientTransform="matrix(2.0808079,0,0,2.3409091,-2.5858604,-7.907281)" gradientUnits="userSpaceOnUse" xlink:href="#linearGradient27416-1-2-0"/><linearGradient id="linearGradient27416-1-2-0"><stop style="stop-color:#55c1ec;stop-opacity:1" id="stop27420-2-0-8" offset="0"/><stop style="stop-color:#3689e6;stop-opacity:1" id="stop27422-3-5-3" offset="1"/></linearGradient><linearGradient id="linearGradient4632-92-3-0-8-1-9"><stop style="stop-color:#fafafa;stop-opacity:1" id="stop4634-68-8-0-2-9-4" offset="0"/><stop style="stop-color:#e1e1e1;stop-opacity:1" id="stop4636-8-21-7-1-4-8" offset="1"/></linearGradient><radialGradient id="radialGradient4093" cx="4.993" cy="43.5" r="2.5" fx="4.993" fy="43.5" gradientTransform="matrix(2.003784,0,0,1.4,27.98813,-17.4)" gradientUnits="userSpaceOnUse" xlink:href="#linearGradient3688-166-749-5"/><linearGradient id="linearGradient3688-166-749-5"><stop style="stop-color:#181818;stop-opacity:1" id="stop2883-0" offset="0"/><stop style="stop-color:#181818;stop-opacity:0" id="stop2885-5" offset="1"/></linearGradient><radialGradient id="radialGradient4095" cx="4.993" cy="43.5" r="2.5" fx="4.993" fy="43.5" gradientTransform="matrix(2.003784,0,0,1.4,-20.01187,-104.4)" gradientUnits="userSpaceOnUse" xlink:href="#linearGradient3688-464-309-8"/><linearGradient id="linearGradient3688-464-309-8"><stop style="stop-color:#181818;stop-opacity:1" id="stop2889-9" offset="0"/><stop style="stop-color:#181818;stop-opacity:0" id="stop2891-4" offset="1"/></linearGradient><linearGradient id="linearGradient4097" x1="25.058" x2="25.058" y1="47.028" y2="39.999" gradientUnits="userSpaceOnUse" xlink:href="#linearGradient3702-501-757-0"/><linearGradient id="linearGradient3702-501-757-0"><stop style="stop-color:#181818;stop-opacity:0" id="stop2895-0" offset="0"/><stop style="stop-color:#181818;stop-opacity:1" id="stop2897-2" offset=".5"/><stop style="stop-color:#181818;stop-opacity:0" id="stop2899-6" offset="1"/></linearGradient><linearGradient id="linearGradient3811"><stop style="stop-color:#000;stop-opacity:1" id="stop3813" offset="0"/><stop style="stop-color:#000;stop-opacity:0" id="stop3815" offset="1"/></linearGradient><radialGradient id="radialGradient4432" cx="-4.029" cy="93.468" r="35.338" fx="-4.029" fy="93.468" gradientTransform="matrix(1.5563924,0,0,0.16978827,70.270355,102.1321)" gradientUnits="userSpaceOnUse" xlink:href="#linearGradient3811"/><radialGradient id="radialGradient3044" cx="32" cy="4.342" r="27.5" fx="32" fy="4.342" gradientTransform="matrix(1.8994991e-8,4.3639682,-4.363968,1.8994991e-8,82.947989,-123.94014)" gradientUnits="userSpaceOnUse" xlink:href="#linearGradient4632-92-3-0-8-1-9"/><linearGradient id="linearGradient4011-9-9-70-61-7"><stop style="stop-color:#fff;stop-opacity:1" id="stop4013-5-4-3-8-3" offset="0"/><stop id="stop4015-1-5-70-9-5" offset=".508" style="stop-color:#fff;stop-opacity:.23529412"/><stop style="stop-color:#fff;stop-opacity:.15686275" id="stop4017-7-0-13-0-1" offset=".835"/><stop style="stop-color:#fff;stop-opacity:.39215687" id="stop4019-1-12-7-0-7" offset="1"/></linearGradient><linearGradient id="linearGradient4215-8-4-07-7"><stop id="stop4217-1-2-1-2" offset="0" style="stop-color:#e9e9e9;stop-opacity:1"/><stop id="stop4219-3-4-0-96" offset="1" style="stop-color:#fff;stop-opacity:1"/></linearGradient><linearGradient id="linearGradient3882" x1="71.204" x2="71.204" y1="6.238" y2="44.341" gradientTransform="matrix(-0.94594587,0,0,0.94594587,149.85603,43.015232)" gradientUnits="userSpaceOnUse" xlink:href="#linearGradient4011-9-9-70-61-7"/><linearGradient id="linearGradient3885" x1="38.977" x2="38.977" y1="59.968" y2="8.093" gradientTransform="matrix(-0.70588238,0,0,0.70588238,104.58823,43.00181)" gradientUnits="userSpaceOnUse" xlink:href="#linearGradient4215-8-4-07-7"/></defs><metadata id="metadata4439"/><path style="color:#000;display:inline;overflow:visible;visibility:visible;opacity:.2;fill:url(#radialGradient4432);fill-opacity:1;fill-rule:nonzero;stroke:none;stroke-width:1;marker:none;enable-background:accumulate" id="path3041" d="m 119,118.00181 a 55,6 0 0 1 -109.9999982,0 55,6 0 1 1 109.9999982,0 z"/><g style="display:inline" id="g2036" transform="matrix(2.6999989,0,0,0.55555607,-0.80000812,94.890691)"><g style="opacity:.4" id="g3712" transform="matrix(1.052632,0,0,1.285713,-1.263158,-13.42854)"><rect style="fill:url(#radialGradient4093);fill-opacity:1;stroke:none" id="rect2801" width="5" height="7" x="38" y="40"/><rect style="fill:url(#radialGradient4095);fill-opacity:1;stroke:none" id="rect3696" width="5" height="7" x="-10" y="-47" transform="scale(-1)"/><rect style="fill:url(#linearGradient4097);fill-opacity:1;stroke:none" id="rect3700" width="28" height="7" x="10" y="40"/></g></g><rect style="color:#000;display:inline;overflow:visible;visibility:visible;fill:url(#radialGradient3044);fill-opacity:1;fill-rule:nonzero;stroke:none;stroke-width:1;marker:none;enable-background:accumulate" id="rect5505-21-3" width="102" height="102" x="13" y="16" rx="9.5" ry="9.5"/><rect style="color:#000;display:inline;overflow:visible;visibility:visible;opacity:.2;fill:#fff;fill-opacity:1;fill-rule:nonzero;stroke:none;stroke-width:2;marker:none;enable-background:accumulate" id="rect3979-9" width="74" height="38" x="27" y="49" rx="19" ry="19"/><rect style="color:#000;display:inline;overflow:visible;visibility:visible;fill:url(#linearGradient3913-9);fill-opacity:1;fill-rule:nonzero;stroke:none;stroke-width:2;marker:none;enable-background:accumulate" id="rect3979" width="74" height="38" x="27" y="48.002" rx="19" ry="19"/><rect style="fill:none;stroke:url(#linearGradient4136);stroke-width:1;stroke-linecap:round;stroke-linejoin:round;stroke-miterlimit:4;stroke-dasharray:none;stroke-dashoffset:0;stroke-opacity:1" id="rect6741-7" width="101" height="101" x="13.5" y="16.502" rx="9" ry="9"/><rect style="color:#000;display:inline;overflow:visible;visibility:visible;opacity:.25;fill:none;stroke:#000;stroke-width:1;stroke-linecap:butt;stroke-linejoin:miter;stroke-miterlimit:4;stroke-dasharray:none;stroke-dashoffset:0;stroke-opacity:1;marker:none;enable-background:accumulate" id="rect5505-21-3-1" width="103" height="103" x="12.5" y="15.502" rx="10" ry="10"/><path style="color:#000;display:inline;overflow:visible;visibility:visible;opacity:.3;fill:#0e4774;fill-opacity:1;fill-rule:nonzero;stroke:none;stroke-width:4.51065;marker:none;enable-background:accumulate" id="rect3979-7-6" d="m 46,48.000002 c -10.526,0 -19,8.474 -19,19 0,0.16989 0.02686,0.331206 0.03125,0.5 0.26748,-10.289295 8.61264,-18.5 18.96875,-18.5 h 36 c 10.35611,0 18.70127,8.210705 18.96875,18.5 0.004,-0.168794 0.0312,-0.33011 0.0312,-0.5 0,-10.526 -8.474,-19 -19,-19 h -36 z"/><path style="color:#000;display:inline;overflow:visible;visibility:visible;opacity:.15;fill:#0e4774;fill-opacity:1;fill-rule:nonzero;stroke:none;stroke-width:5.07449;marker:none;enable-background:accumulate" id="rect3979-8" d="m 46,49.000002 c -10.35611,0 -18.70127,8.210705 -18.96875,18.5 0.26748,10.289295 8.61264,18.5 18.96875,18.5 h 1 c -10.526,0 -19,-8.028 -19,-18 0,-9.972 8.474,-18 19,-18 h 34 c 10.526,0 19,8.028 19,18 0,9.972 -8.474,18 -19,18 h 1 c 10.35611,0 18.70127,-8.210705 18.96875,-18.5 -0.26748,-10.289295 -8.61264,-18.5 -18.96875,-18.5 z"/><rect style="color:#000;display:inline;overflow:visible;visibility:visible;opacity:.2;fill:none;fill-opacity:1;fill-rule:nonzero;stroke:#000;stroke-width:1;stroke-miterlimit:4;stroke-dasharray:none;marker:none;enable-background:accumulate" id="rect3979-5" width="73" height="37" x="27.5" y="48.5" rx="18.743" ry="18.5"/><path style="color:#000;display:inline;overflow:visible;visibility:visible;opacity:.07;fill:#000;fill-opacity:1;fill-rule:nonzero;stroke:none;stroke-width:2;marker:none;enable-background:accumulate" id="path2555-7-1-9-4-9-1" d="m 82,47.999998 c 11.03531,0 20,8.964687 20,20.000005 0,11.035313 -8.96469,19.999999 -20,19.999999 -11.03531,0 -20.00002,-8.964686 -20,-19.999999 0,-11.035318 8.96469,-20.000005 20,-20.000005 z"/><path style="color:#000;display:inline;overflow:visible;visibility:visible;opacity:.15;fill:#000;fill-opacity:1;fill-rule:nonzero;stroke:none;stroke-width:2;marker:none;enable-background:accumulate" id="path2555-7-1-9-4-9" d="m 82,49 c 10.483546,0 19,8.516451 19,19.000002 C 101,78.483549 92.483546,87 82,87 71.516444,87 62.999979,78.483549 63,68.000002 63,57.516451 71.516444,49 82,49 Z"/><path style="color:#000;display:inline;overflow:visible;visibility:visible;fill:url(#linearGradient3885);fill-opacity:1;fill-rule:nonzero;stroke:none;stroke-width:1;marker:none;enable-background:accumulate" id="path2555-7-1-9-4" d="m 82,49.00181 c 9.93178,0 18,8.068217 18,18.000002 0,9.931781 -8.06822,17.999998 -18,17.999998 -9.93179,0 -18.00002,-8.068217 -18,-17.999998 0,-9.931785 8.06821,-18.000002 18,-18.000002 z"/><path style="color:#000;display:inline;overflow:visible;visibility:visible;fill:none;stroke:url(#linearGradient3882);stroke-width:1;stroke-linecap:round;stroke-linejoin:round;stroke-miterlimit:4;stroke-dasharray:none;stroke-dashoffset:0;stroke-opacity:1;marker:none;enable-background:accumulate" id="path8655-6-0-5-2" d="m 64.5,67.001184 c 0,9.665309 7.8356,17.500627 17.49979,17.500627 C 91.66485,84.501811 99.5,76.666398 99.5,67.001184 99.5,57.336338 91.66485,49.50181 81.99979,49.50181 72.3356,49.50181 64.5,57.336338 64.5,67.001184 Z"/><path style="color:#000;display:inline;overflow:visible;visibility:visible;opacity:.5;fill:none;stroke:#656565;stroke-width:1;stroke-linecap:round;stroke-linejoin:round;stroke-miterlimit:4;stroke-dasharray:none;stroke-dashoffset:0;stroke-opacity:1;marker:none;enable-background:accumulate" id="path2555-7-1-9-9-41" d="m 82,48.501811 c 10.20766,0 18.5,8.292334 18.5,18.500001 0,10.207663 -8.29234,18.499997 -18.5,18.499997 -10.20767,0 -18.50002,-8.292334 -18.5,-18.499997 0,-10.207667 8.29233,-18.500001 18.5,-18.500001 z"/></svg>