<svg xmlns="http://www.w3.org/2000/svg" xmlns:svg="http://www.w3.org/2000/svg" xmlns:xlink="http://www.w3.org/1999/xlink" id="svg4715" width="32" height="32" version="1.1"><defs id="defs4717"><linearGradient id="linearGradient909"><stop id="stop905" offset="0" style="stop-color:#fafafa;stop-opacity:1"/><stop id="stop907" offset="1" style="stop-color:#d4d4d4;stop-opacity:1"/></linearGradient><linearGradient id="linearGradient3924"><stop style="stop-color:#fff;stop-opacity:1" id="stop3926" offset="0"/><stop style="stop-color:#fff;stop-opacity:.23529412" id="stop3928" offset=".04"/><stop style="stop-color:#fff;stop-opacity:.15686275" id="stop3930" offset=".958"/><stop style="stop-color:#fff;stop-opacity:.39215687" id="stop3932" offset="1"/></linearGradient><radialGradient id="radialGradient3163" cx="4.993" cy="43.5" r="2.5" fx="4.993" fy="43.5" gradientTransform="matrix(2.003784,0,0,1.4,27.98813,-17.4)" gradientUnits="userSpaceOnUse" xlink:href="#linearGradient3688-166-749"/><linearGradient id="linearGradient3688-166-749"><stop style="stop-color:#181818;stop-opacity:1" id="stop2883" offset="0"/><stop style="stop-color:#181818;stop-opacity:0" id="stop2885" offset="1"/></linearGradient><radialGradient id="radialGradient3165" cx="4.993" cy="43.5" r="2.5" fx="4.993" fy="43.5" gradientTransform="matrix(2.003784,0,0,1.4,-20.01187,-104.4)" gradientUnits="userSpaceOnUse" xlink:href="#linearGradient3688-464-309"/><linearGradient id="linearGradient3688-464-309"><stop style="stop-color:#181818;stop-opacity:1" id="stop2889" offset="0"/><stop style="stop-color:#181818;stop-opacity:0" id="stop2891" offset="1"/></linearGradient><linearGradient id="linearGradient3167" x1="25.058" x2="25.058" y1="47.028" y2="39.999" gradientUnits="userSpaceOnUse" xlink:href="#linearGradient3702-501-757"/><linearGradient id="linearGradient3702-501-757"><stop style="stop-color:#181818;stop-opacity:0" id="stop2895" offset="0"/><stop style="stop-color:#181818;stop-opacity:1" id="stop2897" offset=".5"/><stop style="stop-color:#181818;stop-opacity:0" id="stop2899" offset="1"/></linearGradient><linearGradient id="linearGradient3027" x1="24" x2="24" y1="6.24" y2="41.76" gradientTransform="matrix(0.67567568,0,0,0.67567567,-0.2162133,-0.21620877)" gradientUnits="userSpaceOnUse" xlink:href="#linearGradient3924"/><linearGradient id="linearGradient903" x1="14.33" x2="14.33" y1="32.022" y2="-.07" gradientTransform="translate(0,-32)" gradientUnits="userSpaceOnUse" xlink:href="#linearGradient909"/><linearGradient id="linearGradient4011-2-96"><stop style="stop-color:#fff;stop-opacity:1" id="stop4013-5-8" offset="0"/><stop style="stop-color:#fff;stop-opacity:.23529412" id="stop4015-3-48" offset=".508"/><stop style="stop-color:#fff;stop-opacity:.15686275" id="stop4017-7-1" offset=".835"/><stop style="stop-color:#fff;stop-opacity:.39215687" id="stop4019-6-4" offset="1"/></linearGradient><linearGradient id="linearGradient3866" x1="71.204" x2="71.204" y1="6.238" y2="44.341" gradientTransform="matrix(-0.16216213,0,0,0.16216213,32.132461,12.388016)" gradientUnits="userSpaceOnUse" xlink:href="#linearGradient4011-2-96"/><linearGradient id="linearGradient3869" x1="38.977" x2="38.977" y1="59.968" y2="8.093" gradientTransform="matrix(-0.15686275,0,0,0.15686275,25.519607,11.166667)" gradientUnits="userSpaceOnUse" xlink:href="#linearGradient4215-8-4-07-7"/><linearGradient id="linearGradient4215-8-4-07-7"><stop id="stop4217-1-2-1-2" offset="0" style="stop-color:#e9e9e9;stop-opacity:1"/><stop id="stop4219-3-4-0-96" offset="1" style="stop-color:#fff;stop-opacity:1"/></linearGradient><linearGradient id="linearGradient3884" x1="30.271" x2="30.271" y1="10.029" y2="55.053" gradientTransform="matrix(0.49999998,0,0,0.56250002,3e-7,-1.5000023)" gradientUnits="userSpaceOnUse" xlink:href="#linearGradient27416-1-2"/><linearGradient id="linearGradient27416-1-2"><stop id="stop27420-2-0" offset="0" style="stop-color:#64baff;stop-opacity:1"/><stop id="stop27422-3-5" offset="1" style="stop-color:#3689e6;stop-opacity:1"/></linearGradient></defs><metadata id="metadata4720"/><g style="display:inline" id="g2036" transform="matrix(0.6999997,0,0,0.44444486,-0.8000003,10.111104)"><g style="opacity:.4" id="g3712" transform="matrix(1.052632,0,0,1.285713,-1.263158,-13.42854)"><rect style="fill:url(#radialGradient3163);fill-opacity:1;stroke:none" id="rect2801" width="5" height="7" x="38" y="40"/><rect style="fill:url(#radialGradient3165);fill-opacity:1;stroke:none" id="rect3696" width="5" height="7" x="-10" y="-47" transform="scale(-1,-1)"/><rect style="fill:url(#linearGradient3167);fill-opacity:1;stroke:none" id="rect3700" width="28" height="7" x="10" y="40"/></g></g><rect style="color:#000;display:inline;overflow:visible;visibility:visible;fill:url(#linearGradient903);fill-opacity:1;fill-rule:nonzero;stroke:none;stroke-width:1;marker:none;enable-background:accumulate" id="rect5505" width="26" height="26" x="3" y="-29" rx="2.5" ry="2.5" transform="scale(1,-1)"/><rect style="color:#000;display:inline;overflow:visible;visibility:visible;opacity:.5;fill:none;stroke:#555761;stroke-width:1;stroke-linecap:round;stroke-linejoin:round;stroke-miterlimit:4;stroke-dasharray:none;stroke-dashoffset:0;stroke-opacity:1;marker:none;enable-background:accumulate" id="rect5505-6-6" width="27" height="27" x="2.5" y="2.5" rx="3" ry="3"/><rect style="fill:none;stroke:url(#linearGradient3027);stroke-width:1;stroke-linecap:round;stroke-linejoin:round;stroke-miterlimit:4;stroke-dasharray:none;stroke-dashoffset:0;stroke-opacity:1" id="rect6741-7" width="25" height="25" x="3.5" y="3.5" rx="2" ry="2"/><path id="rect13708-6" d="m 11.555547,11.999993 c -2.462227,0 -4.444453,1.982226 -4.444453,4.444453 0,2.462227 1.982226,4.444454 4.444453,4.444454 h 8.888908 c 2.462228,0 4.444453,-1.982227 4.444453,-4.444454 0,-2.462227 -1.982225,-4.444453 -4.444453,-4.444453 z" style="color:#000;display:inline;overflow:visible;visibility:visible;opacity:.2;fill:#fff;fill-opacity:1;stroke:none;stroke-width:2;marker:none;enable-background:accumulate"/><path id="rect13708" d="M 11.499999,11.999999 C 9.0069997,11.999999 7,14.006999 7,16.499999 7,18.992998 9.0069997,21 11.499999,21 h 9.000002 C 22.993001,21 25,18.992999 25,16.499999 c 0,-2.493 -2.006999,-4.5 -4.499999,-4.5 z" style="color:#000;display:inline;overflow:visible;visibility:visible;fill:url(#linearGradient3884);fill-opacity:1;stroke:none;stroke-width:2;marker:none;enable-background:accumulate"/><path id="rect13708-7" d="m 11.500002,11.999999 c -2.4930003,0 -4.5000007,2.007 -4.5000007,4.500002 0,0.07555 0.010419,0.150381 0.014064,0.224999 0.1166094,-2.387527 2.0684925,-4.275001 4.4859387,-4.275001 h 9.000004 c 2.417447,0 4.36933,1.887474 4.485941,4.275001 0.0036,-0.07462 0.01405,-0.149447 0.01405,-0.224999 0,-2.493002 -2.006999,-4.500002 -4.500001,-4.500002 h -9.000004 z" style="color:#000;display:inline;overflow:visible;visibility:visible;opacity:.3;fill:#0e4774;fill-opacity:1;fill-rule:nonzero;stroke:none;stroke-width:2.40860224;marker:none;enable-background:accumulate"/><path id="rect3136" d="m 11.521127,11.999999 c -2.4350653,0 -4.403531,1.989304 -4.521127,4.505639 0.1167919,2.516336 2.0717286,4.505641 4.492957,4.505641 h 0.478873 c -2.5111694,0 -4.5352098,-1.903752 -4.5352098,-4.268501 0,-2.36475 2.0240404,-4.268501 4.5352098,-4.268501 h 8.056339 c 2.511168,0 4.53521,1.903751 4.53521,4.268501 0,2.364749 -2.024042,4.268501 -4.53521,4.268501 h 0.478872 c 2.421229,0 4.376166,-1.989305 4.492959,-4.505641 -0.117597,-2.516335 -2.086064,-4.505639 -4.521128,-4.505639 z" style="color:#000;display:inline;overflow:visible;visibility:visible;opacity:.15;fill:#002e99;fill-opacity:1;fill-rule:nonzero;stroke:none;stroke-width:2.70967746;marker:none;enable-background:accumulate"/><path style="color:#000;display:inline;overflow:visible;visibility:visible;opacity:.15;fill:#000;fill-opacity:1;fill-rule:nonzero;stroke:none;stroke-width:2;marker:none;enable-background:accumulate" id="path2555-7-1-9-4-9" d="M 20.5,13 C 22.982943,13 25,15.017054 25,17.500002 25,19.982946 22.982943,22 20.5,22 18.017052,22 15.999996,19.982946 16,17.500002 16,15.017054 18.017052,13 20.5,13 Z"/><path style="color:#000;display:inline;overflow:visible;visibility:visible;fill:url(#linearGradient3869);fill-opacity:1;fill-rule:nonzero;stroke:none;stroke-width:1;marker:none;enable-background:accumulate" id="path2555-7-1-9-4" d="m 20.5,12.5 c 2.207061,0 4,1.792938 4,4 0,2.207064 -1.792939,4.000001 -4,4.000001 -2.207064,0 -4.000004,-1.792937 -4,-4.000001 0,-2.207062 1.792936,-4 4,-4 z"/><path style="color:#000;display:inline;overflow:visible;visibility:visible;fill:none;stroke:url(#linearGradient3866);stroke-width:1;stroke-linecap:round;stroke-linejoin:round;stroke-miterlimit:4;stroke-dasharray:none;stroke-dashoffset:0;stroke-opacity:1;marker:none;enable-background:accumulate" id="path8655-6-0-5-2" d="M 17.5,16.499893 C 17.5,18.156804 18.843246,19.5 20.499963,19.5 22.156831,19.5 23.5,18.156787 23.5,16.499893 c 0,-1.656829 -1.343169,-2.999892 -3.000037,-2.999892 -1.656717,0 -2.999963,1.343063 -2.999963,2.999892 z"/><path style="color:#000;display:inline;overflow:visible;visibility:visible;opacity:.5;fill:none;stroke:#656565;stroke-width:1;stroke-linecap:round;stroke-linejoin:round;stroke-miterlimit:4;stroke-dasharray:none;stroke-dashoffset:0;stroke-opacity:1;marker:none;enable-background:accumulate" id="path2555-7-1-9-9-41" d="m 20.500001,12.500001 c 2.207063,0 3.999999,1.792937 3.999999,4 C 24.5,18.707064 22.707064,20.5 20.500001,20.5 18.292936,20.5 16.499996,18.707064 16.5,16.500001 c 0,-2.207063 1.792936,-4 4.000001,-4 z"/></svg>